<svg id="Layer_1fdfas" data-name="Layer 1" xmlns="http://www.w3.org/2000/svg" viewBox="0 0 500 500"><defs>
<style>.cls1-1,.cls1-3{fill:none;}.cls1-2{clip-path:url(#clip-path);}.cls1-3{stroke:#231f20;stroke-width:4.16px;}.cls1-4{font-size:37.48px;}.cls1-10,.cls1-11,.cls1-12,.cls1-13,.cls1-14,.cls1-15,.cls1-16,.cls1-17,.cls1-18,.cls1-19,.cls1-20,.cls1-21,.cls1-22,.cls1-23,.cls1-4,.cls1-5,.cls1-6,.cls1-7,.cls1-8,.cls1-9{fill:#231f20;font-family:HelveticaLTStd-Roman, Helvetica LT Std;}.cls1-5{font-size:37.48px;}.cls1-6{font-size:37.48px;}.cls1-7{font-size:37.48px;}.cls1-8{font-size:37.48px;}.cls1-9{font-size:37.48px;}.cls1-10{font-size:37.48px;}.cls1-11{font-size:37.48px;}.cls1-12{font-size:37.48px;}.cls1-13{font-size:37.48px;}.cls1-14{font-size:37.48px;}.cls1-15{font-size:37.48px;}.cls1-16{font-size:37.48px;}.cls1-17{font-size:37.48px;}.cls1-18{font-size:37.48px;}.cls1-19{font-size:37.48px;}.cls1-20{font-size:37.48px;}.cls1-21{font-size:37.48px;}.cls1-22{font-size:37.48px;}.cls1-23{font-size:37.48px;}</style>
<clipPath id="clip-path4">
<rect class="cls1-1" x="34" y="34" width="432" height="432"/></clipPath></defs>
<g id="Artwork_1" data-name="Artwork 1"><g class="cls1-2"><g class="cls1-2"><path class="cls1-3" d="M297.72,413.74a170.55,170.55,0,1,0-211.45-116A170.53,170.53,0,0,0,297.72,413.74Z"/></g><text class="cls1-4" transform="translate(127.28 146.33) rotate(124.89)">C</text><text class="cls1-5" transform="matrix(-0.43, 0.9, -0.9, -0.43, 111.26, 169.26)">O</text><text class="cls1-6" transform="matrix(-0.25, 0.97, -0.97, -0.25, 98.6, 196.31)">D</text><text class="cls1-7" transform="translate(91.6 223.36) rotate(94.6)">E</text><text class="cls1-8" transform="matrix(0.09, 1, -1, 0.09, 89.17, 249.13)">R</text><text class="cls1-9" transform="translate(92.11 277.22) rotate(77.39)"> </text><text class="cls1-10" transform="translate(94.28 288.88) rotate(71.57)">&</text><text class="cls1-11" transform="translate(102.98 313.57) rotate(64.32)"> </text><text class="cls1-12" transform="translate(107.5 324.34) rotate(57.15)">G</text><text class="cls1-13" transform="translate(123.49 348.85) rotate(47.29)">A</text><text class="cls1-14" transform="translate(140.6 368.12) rotate(36.26)">M</text><text class="cls1-15" transform="translate(166.54 387.06) rotate(26.71)">E</text><text class="cls1-16" transform="translate(190.17 398.47) rotate(19.87)"> </text><text class="cls1-17" transform="translate(201.01 402.9) rotate(12.99)">D</text><text class="cls1-18" transform="translate(228.24 409.07) rotate(3.19)">E</text><text class="cls1-19" transform="matrix(0.99, -0.12, 0.12, 0.99, 254.05, 410.7)">S</text><text class="cls1-9" transform="translate(280.21 407.22) rotate(-12.61)">I</text><text class="cls1-20" transform="translate(291.68 405.1) rotate(-19.89)">G</text><text class="cls1-21" transform="translate(319.71 394.95) rotate(-31.43)">N</text><text class="cls1-22" transform="translate(343.73 380.66) rotate(-41.31)">E</text><text class="cls1-23" transform="translate(363.42 363.57) rotate(-49.63)">R</text></g></g></svg>