<svg id="a9ff75bd-a221-4c3e-80c0-6a06298d6e7c" data-name="Layer 1" xmlns="http://www.w3.org/2000/svg" xmlns:xlink="http://www.w3.org/1999/xlink" viewBox="0 0 500 500"><defs><style>.a8ca97a6-4b83-4c86-9a7a-483db702fadd,.f2f71f58-86b8-4a9b-95ca-8211ac44c27a{fill:none;}.af45cb1a-10f4-447f-9788-cd45c1c8b9c6{clip-path:url(#aadfdb1a-b842-4709-9ec4-ba118c17fc9d);}.bb6a3cde-92a7-4d47-8761-237bf27ec442{clip-path:url(#a89ccd32-cdb0-448e-9dd6-1fa1b3ff51ae);}.ba839b89-97f7-49aa-8e41-d11e36c16802{fill:#828583;}.a8ca97a6-4b83-4c86-9a7a-483db702fadd{stroke:#828583;stroke-miterlimit:10;stroke-width:1.38px;}</style><clipPath id="aadfdb1a-b842-4709-9ec4-ba118c17fc9d"><rect class="f2f71f58-86b8-4a9b-95ca-8211ac44c27a" x="148" y="148" width="204" height="204"/></clipPath><clipPath id="a89ccd32-cdb0-448e-9dd6-1fa1b3ff51ae"><path class="f2f71f58-86b8-4a9b-95ca-8211ac44c27a" d="M148,250A102,102,0,1,0,250,148,102,102,0,0,0,148,250"/></clipPath></defs><g id="bc8a2a69-8f2b-43ed-853f-9ea353d45711" data-name="Artwork 4"><g class="af45cb1a-10f4-447f-9788-cd45c1c8b9c6"><g class="bb6a3cde-92a7-4d47-8761-237bf27ec442"><path class="ba839b89-97f7-49aa-8e41-d11e36c16802" d="M324.38,225.14l1.71,1.83c0-1.53-1.21-2.16-2.3-3,.2.38.4.75.59,1.13"/><path class="a8ca97a6-4b83-4c86-9a7a-483db702fadd" d="M324.38,225.14l1.71,1.83c0-1.53-1.21-2.16-2.3-3C324,224.39,324.19,224.76,324.38,225.14Z"/><path class="ba839b89-97f7-49aa-8e41-d11e36c16802" d="M324.59,237.58l-3.36-1.79c-.3,1.83,2.83,2.55,4,3.84,0-.65,0-1.83-.61-2"/><path class="a8ca97a6-4b83-4c86-9a7a-483db702fadd" d="M324.59,237.58l-3.36-1.79c-.3,1.83,2.83,2.55,4,3.84C325.2,239,325.19,237.8,324.59,237.58Z"/><path class="ba839b89-97f7-49aa-8e41-d11e36c16802" d="M250.66,334.61c.55-2.9-.37-5.69-.94-8.52-2.53,2.08-.08,6.09.94,8.52"/><path class="a8ca97a6-4b83-4c86-9a7a-483db702fadd" d="M250.66,334.61c.55-2.9-.37-5.69-.94-8.52C247.19,328.17,249.64,332.18,250.66,334.61Z"/><path class="ba839b89-97f7-49aa-8e41-d11e36c16802" d="M262,336.53c2.09-1.56-1.28-1.94-2.5-1.59-.32,2.73,1.36,1.69,2.5,1.59"/><path class="a8ca97a6-4b83-4c86-9a7a-483db702fadd" d="M262,336.53c2.09-1.56-1.28-1.94-2.5-1.59C259.21,337.67,260.89,336.63,262,336.53Z"/><path class="ba839b89-97f7-49aa-8e41-d11e36c16802" d="M278,313.3s0-.4,0-.61c-1,.34-2.7.22-3.31,1a14.26,14.26,0,0,0,3.28-.39"/><path class="a8ca97a6-4b83-4c86-9a7a-483db702fadd" d="M278,313.3s0-.4,0-.61c-1,.34-2.7.22-3.31,1A14.26,14.26,0,0,0,278,313.3Z"/><path class="ba839b89-97f7-49aa-8e41-d11e36c16802" d="M255,335.63l-2,1.5,2.73.3a3,3,0,0,0-.74-1.8"/><path class="a8ca97a6-4b83-4c86-9a7a-483db702fadd" d="M255,335.63l-2,1.5,2.73.3A3,3,0,0,0,255,335.63Z"/><path class="ba839b89-97f7-49aa-8e41-d11e36c16802" d="M256.82,344.59c.26.37.2.35.2.35,1.55,1.72,3.39,3.43,4.41,5.28-2.9,0,.71,2.43,1.18,3.4,3.34-5.46-2.51-13.2-8.72-11Z"/><path class="a8ca97a6-4b83-4c86-9a7a-483db702fadd" d="M256.82,344.59c.26.37.2.35.2.35,1.55,1.72,3.39,3.43,4.41,5.28-2.9,0,.71,2.43,1.18,3.4,3.34-5.46-2.51-13.2-8.72-11Z"/><path class="ba839b89-97f7-49aa-8e41-d11e36c16802" d="M315.78,246.5a20,20,0,0,0-2.7-.64c.83,1,2.43,1.37,3.31,1.73-.2-.38-.32-1-.61-1.09"/><path class="a8ca97a6-4b83-4c86-9a7a-483db702fadd" d="M315.78,246.5a20,20,0,0,0-2.7-.64c.83,1,2.43,1.37,3.31,1.73C316.19,247.21,316.07,246.61,315.78,246.5Z"/><path class="ba839b89-97f7-49aa-8e41-d11e36c16802" d="M313.81,253.54l-.81.25a23.38,23.38,0,0,0,2.6,3.78c.83-1.23-2.3-2.34-1.79-4"/><path class="a8ca97a6-4b83-4c86-9a7a-483db702fadd" d="M313.81,253.54l-.81.25a23.38,23.38,0,0,0,2.6,3.78C316.43,256.34,313.3,255.23,313.81,253.54Z"/><path class="ba839b89-97f7-49aa-8e41-d11e36c16802" d="M333.84,234a7.66,7.66,0,0,0-2.45-.78,5.3,5.3,0,0,0,4.69,3.37,16,16,0,0,0-2.24-2.59"/><path class="a8ca97a6-4b83-4c86-9a7a-483db702fadd" d="M333.84,234a7.66,7.66,0,0,0-2.45-.78,5.3,5.3,0,0,0,4.69,3.37A16,16,0,0,0,333.84,234Z"/><path class="ba839b89-97f7-49aa-8e41-d11e36c16802" d="M324.23,230.48c-2.4-2-4.25-7.35-7.59-7,2.06,4,5.42,7.14,9,9.9a14.15,14.15,0,0,0-1.37-2.88"/><path class="a8ca97a6-4b83-4c86-9a7a-483db702fadd" d="M324.23,230.48c-2.4-2-4.25-7.35-7.59-7,2.06,4,5.42,7.14,9,9.9A14.15,14.15,0,0,0,324.23,230.48Z"/><path class="ba839b89-97f7-49aa-8e41-d11e36c16802" d="M325.68,245.06c-4.28-7.07-11.6-13-17.88-18.24.37,6.8,8,10.74,10.71,16.82-.23.08-.29.09-.31.08,3.91,2.11,7.31,5.5,11.56,6.69,0-2.46-2.53-3.85-4.08-5.35"/><path class="a8ca97a6-4b83-4c86-9a7a-483db702fadd" d="M325.68,245.06c-4.28-7.07-11.6-13-17.88-18.24.37,6.8,8,10.74,10.71,16.82-.23.08-.29.09-.31.08,3.91,2.11,7.31,5.5,11.56,6.69C329.75,248,327.23,246.56,325.68,245.06Z"/><path class="ba839b89-97f7-49aa-8e41-d11e36c16802" d="M332,228.84c-.19,3.48,3.65,3.75,5,6.09-.83-3.91-2.1-9.8-7.35-8.68a32.93,32.93,0,0,0,2.32,2.59"/><path class="a8ca97a6-4b83-4c86-9a7a-483db702fadd" d="M332,228.84c-.19,3.48,3.65,3.75,5,6.09-.83-3.91-2.1-9.8-7.35-8.68A32.93,32.93,0,0,0,332,228.84Z"/><path class="ba839b89-97f7-49aa-8e41-d11e36c16802" d="M338.26,253.63a24.35,24.35,0,0,0-.46-6c-1.47,1-.1,4.32-.35,6.13a3.2,3.2,0,0,0,.81-.17"/><path class="a8ca97a6-4b83-4c86-9a7a-483db702fadd" d="M338.26,253.63a24.35,24.35,0,0,0-.46-6c-1.47,1-.1,4.32-.35,6.13A3.2,3.2,0,0,0,338.26,253.63Z"/><path class="ba839b89-97f7-49aa-8e41-d11e36c16802" d="M312.43,185.8c2.43-2.73-3.8-3.23-5.45-4.64,0,1.86,4.25,5.18,5.45,4.64"/><path class="a8ca97a6-4b83-4c86-9a7a-483db702fadd" d="M312.43,185.8c2.43-2.73-3.8-3.23-5.45-4.64C307,183,311.23,186.34,312.43,185.8Z"/><path class="ba839b89-97f7-49aa-8e41-d11e36c16802" d="M279.32,306.6a6.43,6.43,0,0,0,6.24-3.07c-2.75,1-5.8,2.41-8.31,3.64.63.73,1.38-.34,2.07-.57"/><path class="a8ca97a6-4b83-4c86-9a7a-483db702fadd" d="M279.32,306.6a6.43,6.43,0,0,0,6.24-3.07c-2.75,1-5.8,2.41-8.31,3.64C277.88,307.9,278.63,306.83,279.32,306.6Z"/><path class="ba839b89-97f7-49aa-8e41-d11e36c16802" d="M243.05,165.3c1.9-.12,3.79-.3,5.69-.47-1.68-1.64-3.91-.21-5.94-.32.08.27.18.79.25.79"/><path class="a8ca97a6-4b83-4c86-9a7a-483db702fadd" d="M243.05,165.3c1.9-.12,3.79-.3,5.69-.47-1.68-1.64-3.91-.21-5.94-.32C242.88,164.78,243,165.3,243.05,165.3Z"/><path class="ba839b89-97f7-49aa-8e41-d11e36c16802" d="M183.39,251.41a5.45,5.45,0,0,0,2.12,0c-.32-1.34-1.29-.17-2.12,0"/><path class="a8ca97a6-4b83-4c86-9a7a-483db702fadd" d="M183.39,251.41a5.45,5.45,0,0,0,2.12,0C185.19,250,184.22,251.21,183.39,251.41Z"/><path class="ba839b89-97f7-49aa-8e41-d11e36c16802" d="M241.25,396.49l.49-.17a19.23,19.23,0,0,1-2.7-9.47c-2.53,4.09.23,6.68,2.21,9.64"/><path class="a8ca97a6-4b83-4c86-9a7a-483db702fadd" d="M241.25,396.49l.49-.17a19.23,19.23,0,0,1-2.7-9.47C236.51,390.94,239.27,393.53,241.25,396.49Z"/><path class="ba839b89-97f7-49aa-8e41-d11e36c16802" d="M253.58,177.06a6.2,6.2,0,0,0,1.11,1.26c1.84-2.31-1.47-4.71.58-6.93,2.29,1.28,2.11,4.34,4.61,5.64,2.26-7-4.16-9.09-10-8.83,1.09,3,2.56,6.31,3.74,8.86"/><path class="a8ca97a6-4b83-4c86-9a7a-483db702fadd" d="M253.58,177.06a6.2,6.2,0,0,0,1.11,1.26c1.84-2.31-1.47-4.71.58-6.93,2.29,1.28,2.11,4.34,4.61,5.64,2.26-7-4.16-9.09-10-8.83C250.93,171.18,252.4,174.51,253.58,177.06Z"/><path class="ba839b89-97f7-49aa-8e41-d11e36c16802" d="M307.21,188.2c-.83-.51-1.7-.93-2.55-1.39.89,7.53-10.07,4.85-14.1,5.12-4.16,3.16-2.07-3.4.42-3.93-.47-.74-.92-1.48-1.37-2.22-.75,1.51-4,1.94-2.05,4.64-9.42-.15-18.27.57-26.53,5.77-2.8.64-6.91-1.49-9.42,0-4.27,11.79-39.16,11.88-30.08,30.14a23.28,23.28,0,0,0,1.14-2.08c.72,1.71.39,3.82.9,5.68.64-1.5,1.59-4.17,3.5-3.74,2,3.22,5.94,1,8.43,3.5.4-1.06-1.26-1-1.92-1.52a17.64,17.64,0,0,1,2.87-2c.79,3.05.88,6,3,8.53.95-3.25.2-6.72-.08-10,12.39,10.48,18.82.71,33.27,4,2.67,2.15,2.69,5,5.71,6.73-1.77.24-3.6.21-5.15,1.19,3,3.17,27.14,2.72,19.69-3.74-9.1,5.33-5.56-25.24-3.21-29.94,3.31,6.09-.37,15.62,2,22.47,4.33-5.43,1.14-14,1.92-20.59-.44-.87-3.25-1.15-2.38-3.12a12.4,12.4,0,0,1,1.5.21l0-.32h-.91c2-2.61.1-4.7-.52-7.58,7.16,2.53,17.4-8,18.3,4.49-2.36-.72-2.91-2.79-5.85-2.75,0,.7.8,2,.17,2.39-.61.68-2,.41-2.9.71.62,4.33,5.36,3.93,9,5.41,1.46-.05,3.74-1.36,4.78,0,.34-2.36,0-4.7,3-3.55-.15,2.47-.22,4.34,2.78,5.52,2.24,1.22,4.28,5.29,4.29,7.52,1.84-6.36-3-7.27-5.52-11.8,2.23-1.69,7.16,3,7.64,6.16,0,.27.62.46.94.69-.23-7.3-9.76-10.66-11.06-18.1-2.83-3.53-5.5,1.81-9.68-2.58m-78.79,35.14c-4.53,0,2.1-4.89,3.3-2.28-1.09.77-2.16,1.58-3.3,2.28m57.34-27.11c-.47-1.19-.11-2,1.16-2.09a21.77,21.77,0,0,1-1.16,2.09m3.28,3c-.13,1-.11,2-.15,3.06-1.71-1.3-2.8-5.94.78-4.78a8.11,8.11,0,0,0-.63,1.72"/><path class="a8ca97a6-4b83-4c86-9a7a-483db702fadd" d="M307.21,188.2c-.83-.51-1.7-.93-2.55-1.39.89,7.53-10.07,4.85-14.1,5.12-4.16,3.16-2.07-3.4.42-3.93-.47-.74-.92-1.48-1.37-2.22-.75,1.51-4,1.94-2.05,4.64-9.42-.15-18.27.57-26.53,5.77-2.8.64-6.91-1.49-9.42,0-4.27,11.79-39.16,11.88-30.08,30.14a23.28,23.28,0,0,0,1.14-2.08c.72,1.71.39,3.82.9,5.68.64-1.5,1.59-4.17,3.5-3.74,2,3.22,5.94,1,8.43,3.5.4-1.06-1.26-1-1.92-1.52a17.64,17.64,0,0,1,2.87-2c.79,3.05.88,6,3,8.53.95-3.25.2-6.72-.08-10,12.39,10.48,18.82.71,33.27,4,2.67,2.15,2.69,5,5.71,6.73-1.77.24-3.6.21-5.15,1.19,3,3.17,27.14,2.72,19.69-3.74-9.1,5.33-5.56-25.24-3.21-29.94,3.31,6.09-.37,15.62,2,22.47,4.33-5.43,1.14-14,1.92-20.59-.44-.87-3.25-1.15-2.38-3.12a12.4,12.4,0,0,1,1.5.21l0-.32h-.91c2-2.61.1-4.7-.52-7.58,7.16,2.53,17.4-8,18.3,4.49-2.36-.72-2.91-2.79-5.85-2.75,0,.7.8,2,.17,2.39-.61.68-2,.41-2.9.71.62,4.33,5.36,3.93,9,5.41,1.46-.05,3.74-1.36,4.78,0,.34-2.36,0-4.7,3-3.55-.15,2.47-.22,4.34,2.78,5.52,2.24,1.22,4.28,5.29,4.29,7.52,1.84-6.36-3-7.27-5.52-11.8,2.23-1.69,7.16,3,7.64,6.16,0,.27.62.46.94.69-.23-7.3-9.76-10.66-11.06-18.1C314.06,187.25,311.39,192.59,307.21,188.2Zm-78.79,35.14c-4.53,0,2.1-4.89,3.3-2.28C230.63,221.83,229.56,222.64,228.42,223.34Zm57.34-27.11c-.47-1.19-.11-2,1.16-2.09A21.77,21.77,0,0,1,285.76,196.23Zm3.28,3c-.13,1-.11,2-.15,3.06-1.71-1.3-2.8-5.94.78-4.78A8.11,8.11,0,0,0,289,199.18Z"/><path class="ba839b89-97f7-49aa-8e41-d11e36c16802" d="M240.81,408a2.88,2.88,0,0,0,.59,1.27c.45-1.43,2.75-3,1-4.2a5.15,5.15,0,0,0-1.55,2.93"/><path class="a8ca97a6-4b83-4c86-9a7a-483db702fadd" d="M240.81,408a2.88,2.88,0,0,0,.59,1.27c.45-1.43,2.75-3,1-4.2A5.15,5.15,0,0,0,240.81,408Z"/><path class="ba839b89-97f7-49aa-8e41-d11e36c16802" d="M305.53,234.15c.32,0,.38,0,.4,0-.47-1-1.53-1.55-2.3-2.33-.7.85,1.39,1.55,1.9,2.28"/><path class="a8ca97a6-4b83-4c86-9a7a-483db702fadd" d="M305.53,234.15c.32,0,.38,0,.4,0-.47-1-1.53-1.55-2.3-2.33C302.93,232.72,305,233.42,305.53,234.15Z"/><path class="ba839b89-97f7-49aa-8e41-d11e36c16802" d="M313.68,181a2.07,2.07,0,0,1,.36.17c-2.12-1.55-3.51-5.22-6.24-5.19,1,2.38,4,3.31,5.88,5"/><path class="a8ca97a6-4b83-4c86-9a7a-483db702fadd" d="M313.68,181a2.07,2.07,0,0,1,.36.17c-2.12-1.55-3.51-5.22-6.24-5.19C308.83,178.35,311.8,179.28,313.68,181Z"/><path class="ba839b89-97f7-49aa-8e41-d11e36c16802" d="M277.71,177.75a35.69,35.69,0,0,0,1.34,5.15l.84-.37c-.73-1.59-1.45-3.19-2.18-4.78"/><path class="a8ca97a6-4b83-4c86-9a7a-483db702fadd" d="M277.71,177.75a35.69,35.69,0,0,0,1.34,5.15l.84-.37C279.16,180.94,278.44,179.34,277.71,177.75Z"/><path class="ba839b89-97f7-49aa-8e41-d11e36c16802" d="M302.5,179.65a26.59,26.59,0,0,0,2.94-.21c-.49-2.12-2.42-1.22-3.63-.75.23.34.45.95.69,1"/><path class="a8ca97a6-4b83-4c86-9a7a-483db702fadd" d="M302.5,179.65a26.59,26.59,0,0,0,2.94-.21c-.49-2.12-2.42-1.22-3.63-.75C302,179,302.26,179.64,302.5,179.65Z"/><path class="ba839b89-97f7-49aa-8e41-d11e36c16802" d="M261.28,161.92c7.91,2.71,6,10.38,5,16.73,1.87-1,2.62-3.19,4-4.79,1.67,3.11,1.28,6.74,3.91,9.26,1.2-6.46-2.65-11.59-3.51-17.51,8.7,4.09,15.5,10.63,21.7,16.95-4.31-5.86-1.65-15.78-8.14-19.69,0,.37-.16,1.12,0,1.32.36,2.19.73,4.42,1,6.64-4.05.12-4.13-11.32-8.26-6.47-2.7,3.95-4.63-4.79-8.36-4.59a19.57,19.57,0,0,0,.3,4c-3.41-.58-5.72-4.48-9.42-3.44.6.55,1.11,1.32,1.82,1.62"/><path class="a8ca97a6-4b83-4c86-9a7a-483db702fadd" d="M261.28,161.92c7.91,2.71,6,10.38,5,16.73,1.87-1,2.62-3.19,4-4.79,1.67,3.11,1.28,6.74,3.91,9.26,1.2-6.46-2.65-11.59-3.51-17.51,8.7,4.09,15.5,10.63,21.7,16.95-4.31-5.86-1.65-15.78-8.14-19.69,0,.37-.16,1.12,0,1.32.36,2.19.73,4.42,1,6.64-4.05.12-4.13-11.32-8.26-6.47-2.7,3.95-4.63-4.79-8.36-4.59a19.57,19.57,0,0,0,.3,4c-3.41-.58-5.72-4.48-9.42-3.44C260.06,160.85,260.57,161.62,261.28,161.92Z"/><path class="ba839b89-97f7-49aa-8e41-d11e36c16802" d="M292.89,175.89c.08.23.51.33.77.48,1-2.21-1.44-4.66-1.94-6.92a14.63,14.63,0,0,1,4.61.17c-2-.53-4.1-2-6-2a74.11,74.11,0,0,0,2.56,8.28"/><path class="a8ca97a6-4b83-4c86-9a7a-483db702fadd" d="M292.89,175.89c.08.23.51.33.77.48,1-2.21-1.44-4.66-1.94-6.92a14.63,14.63,0,0,1,4.61.17c-2-.53-4.1-2-6-2A74.11,74.11,0,0,0,292.89,175.89Z"/><path class="ba839b89-97f7-49aa-8e41-d11e36c16802" d="M301,176a9.19,9.19,0,0,0,2.41-1.56c-1.25-1.36-4.14-.56-5.06.56,1-.07,2.17,1.22,2.65,1"/><path class="a8ca97a6-4b83-4c86-9a7a-483db702fadd" d="M301,176a9.19,9.19,0,0,0,2.41-1.56c-1.25-1.36-4.14-.56-5.06.56C299.37,175,300.5,176.26,301,176Z"/><path class="ba839b89-97f7-49aa-8e41-d11e36c16802" d="M219.08,469.35a2.15,2.15,0,0,0,1.49.07l-.95-1.44-.54,1.37"/><path class="a8ca97a6-4b83-4c86-9a7a-483db702fadd" d="M219.08,469.35a2.15,2.15,0,0,0,1.49.07l-.95-1.44Z"/><path class="ba839b89-97f7-49aa-8e41-d11e36c16802" d="M209.18,233.36c1.63-5.24,7.12-2.28,10.16-5.67-6.84-2.34-7.74,3-10-6.34-2.7,3.2-1.6,9.49-1.59,13.48.5-.48,1.29-.89,1.46-1.47"/><path class="a8ca97a6-4b83-4c86-9a7a-483db702fadd" d="M209.18,233.36c1.63-5.24,7.12-2.28,10.16-5.67-6.84-2.34-7.74,3-10-6.34-2.7,3.2-1.6,9.49-1.59,13.48C208.22,234.35,209,233.94,209.18,233.36Z"/><path class="ba839b89-97f7-49aa-8e41-d11e36c16802" d="M228.73,193.57a1.76,1.76,0,0,1,.42-.14c-13.61-10.91-13.36-1.47-.42.14"/><path class="a8ca97a6-4b83-4c86-9a7a-483db702fadd" d="M228.73,193.57a1.76,1.76,0,0,1,.42-.14C215.54,182.52,215.79,192,228.73,193.57Z"/><path class="ba839b89-97f7-49aa-8e41-d11e36c16802" d="M215.94,220.4c-.51.95-2.44,3.21-1.22,3.78l1.22-3.78"/><path class="a8ca97a6-4b83-4c86-9a7a-483db702fadd" d="M215.94,220.4c-.51.95-2.44,3.21-1.22,3.78Z"/><path class="ba839b89-97f7-49aa-8e41-d11e36c16802" d="M221.25,233.52l3.22-.49c-1-2.21-3.32-1.31-5.25-1.53.5.76,1,2.37,2,2"/><path class="a8ca97a6-4b83-4c86-9a7a-483db702fadd" d="M221.25,233.52l3.22-.49c-1-2.21-3.32-1.31-5.25-1.53C219.72,232.26,220.24,233.87,221.25,233.52Z"/><path class="ba839b89-97f7-49aa-8e41-d11e36c16802" d="M200.8,192.25c-1.8,1.21-.89,4-1.4,5.94.44-1.57,2.17-4.24,1.4-5.94"/><path class="a8ca97a6-4b83-4c86-9a7a-483db702fadd" d="M200.8,192.25c-1.8,1.21-.89,4-1.4,5.94C199.84,196.62,201.57,194,200.8,192.25Z"/><path class="ba839b89-97f7-49aa-8e41-d11e36c16802" d="M222.53,279.06c-.22,1.26-.41,2.54-.6,3.81.93.47,1.74-4.3.6-3.81"/><path class="a8ca97a6-4b83-4c86-9a7a-483db702fadd" d="M222.53,279.06c-.22,1.26-.41,2.54-.6,3.81C222.86,283.34,223.67,278.57,222.53,279.06Z"/><path class="ba839b89-97f7-49aa-8e41-d11e36c16802" d="M218,265.51c-12.83-6.08-10.7-1.77-17.25-16-2.73,10,10.5,19.3,18.64,15.46a1.38,1.38,0,0,1-1.39.5"/><path class="ba839b89-97f7-49aa-8e41-d11e36c16802" d="M217.85,266.09a58.09,58.09,0,0,0-5.6-2.86L209.41,262a10.38,10.38,0,0,1-2.65-1.61,9,9,0,0,1-1.9-2.44c-.55-.88-1-1.8-1.58-2.68a53.74,53.74,0,0,1-3.05-5.43l1.12-.1a11.86,11.86,0,0,0,.15,6.9,12.34,12.34,0,0,0,4.36,5.68,15.39,15.39,0,0,0,6.51,2.91,10.8,10.8,0,0,0,6.78-.74l2-1-1.23,1.92a1.75,1.75,0,0,1-1,.69,2.52,2.52,0,0,1-.53.08h-.38l-.21,0m.34-1.16,0,0h.21l.24,0a.6.6,0,0,0,.28-.21l.78.92a11.1,11.1,0,0,1-7.47.27,18.4,18.4,0,0,1-6.42-3.49,19.52,19.52,0,0,1-4.58-5.63,10,10,0,0,1-1-7.34l.45-1.55.67,1.45c.88,1.88,1.48,3.88,2.22,5.82a17.08,17.08,0,0,0,1.33,2.8,9,9,0,0,0,1.93,2.4c1.61,1.32,3.68,1.82,5.61,2.53Z"/><path class="ba839b89-97f7-49aa-8e41-d11e36c16802" d="M233.92,296.72c.29.87.59,1.74.89,2.61,1.59-2.57,1.57-5.76-1.77-6.48a12.81,12.81,0,0,0,.88,3.87"/><path class="a8ca97a6-4b83-4c86-9a7a-483db702fadd" d="M233.92,296.72c.29.87.59,1.74.89,2.61,1.59-2.57,1.57-5.76-1.77-6.48A12.81,12.81,0,0,0,233.92,296.72Z"/><path class="ba839b89-97f7-49aa-8e41-d11e36c16802" d="M243.7,172.84c.43.17.4.22.4.22,1.82-2.39,2.84.61,4.62.91-.47-6.47-9.78-4.88-14.12-5,3.47.25,6.82.82,9.1,3.88"/><path class="a8ca97a6-4b83-4c86-9a7a-483db702fadd" d="M243.7,172.84c.43.17.4.22.4.22,1.82-2.39,2.84.61,4.62.91-.47-6.47-9.78-4.88-14.12-5C238.07,169.21,241.42,169.78,243.7,172.84Z"/><path class="ba839b89-97f7-49aa-8e41-d11e36c16802" d="M223,265c1.18-1.43,2.28-2.91,3.39-4.38-2.33.32-2.9,2.65-4.41,4.09.35.1.93.4,1,.29"/><path class="a8ca97a6-4b83-4c86-9a7a-483db702fadd" d="M223,265c1.18-1.43,2.28-2.91,3.39-4.38-2.33.32-2.9,2.65-4.41,4.09C222.35,264.82,222.93,265.12,223,265Z"/><path class="ba839b89-97f7-49aa-8e41-d11e36c16802" d="M244.49,329.27c-2.3-4.08,5.67-10.75-1.25-10.95-.26,3.83-1.24,7.61,1.25,10.95"/><path class="a8ca97a6-4b83-4c86-9a7a-483db702fadd" d="M244.49,329.27c-2.3-4.08,5.67-10.75-1.25-10.95C243,322.15,242,325.93,244.49,329.27Z"/><path class="ba839b89-97f7-49aa-8e41-d11e36c16802" d="M233.52,185.92c.71,1,1.51,1.84,2.28,2.75a19.22,19.22,0,0,0-2.16-3.74c0,.34-.27.8-.12,1"/><path class="a8ca97a6-4b83-4c86-9a7a-483db702fadd" d="M233.52,185.92c.71,1,1.51,1.84,2.28,2.75a19.22,19.22,0,0,0-2.16-3.74C233.59,185.27,233.37,185.73,233.52,185.92Z"/><path class="ba839b89-97f7-49aa-8e41-d11e36c16802" d="M228.68,204c-.23.49-.47.29-.75.3,5.06.23,6.39-4.14.75-.3"/><path class="a8ca97a6-4b83-4c86-9a7a-483db702fadd" d="M228.68,204c-.23.49-.47.29-.75.3C233,204.57,234.32,200.2,228.68,204Z"/><path class="ba839b89-97f7-49aa-8e41-d11e36c16802" d="M238.93,197.91a1.67,1.67,0,0,1-1.5.16l-.06.54c3.62-.7,8-1.59,10.83-3.12-3.77-1.8-6.54.25-9.27,2.42"/><path class="a8ca97a6-4b83-4c86-9a7a-483db702fadd" d="M238.93,197.91a1.67,1.67,0,0,1-1.5.16l-.06.54c3.62-.7,8-1.59,10.83-3.12C244.43,193.69,241.66,195.74,238.93,197.91Z"/><path class="ba839b89-97f7-49aa-8e41-d11e36c16802" d="M303.85,205.93c0,.18.09.36.14.54,1.42-.7.71-1.79-.33-2.18-.2.71,2.37.76.19,1.64"/><path class="a8ca97a6-4b83-4c86-9a7a-483db702fadd" d="M303.85,205.93c0,.18.09.36.14.54,1.42-.7.71-1.79-.33-2.18C303.46,205,306,205.05,303.85,205.93Z"/><path class="ba839b89-97f7-49aa-8e41-d11e36c16802" d="M236.3,182.37a16.84,16.84,0,0,0,3,2.23c-.39-6.82-3.6-7.44-9.16-7.85l0,.33c2.67.34,4.17,3.73,6.15,5.29"/><path class="a8ca97a6-4b83-4c86-9a7a-483db702fadd" d="M236.3,182.37a16.84,16.84,0,0,0,3,2.23c-.39-6.82-3.6-7.44-9.16-7.85l0,.33C232.82,177.42,234.32,180.81,236.3,182.37Z"/><path class="ba839b89-97f7-49aa-8e41-d11e36c16802" d="M268.08,239.4c.57-1.8-4.24-1.91-5.33-1.29,1.4,1.42,3.51,1.07,5.33,1.29"/><path class="a8ca97a6-4b83-4c86-9a7a-483db702fadd" d="M268.08,239.4c.57-1.8-4.24-1.91-5.33-1.29C264.15,239.53,266.26,239.18,268.08,239.4Z"/><path class="ba839b89-97f7-49aa-8e41-d11e36c16802" d="M271.67,241.59c-3.53,1.23-8.62.61-11.08,3.5,3.11,1.49,6.56-1.11,9.67.85-3.87,6.51-11.16,7.64-18,4.24-5-.65-6.25-2.63-6.56-7.24-7.62,10.13,8.54,26.27,19.64,19,6.27-2.85,12.06-15.21,6.3-20.33"/><path class="a8ca97a6-4b83-4c86-9a7a-483db702fadd" d="M271.67,241.59c-3.53,1.23-8.62.61-11.08,3.5,3.11,1.49,6.56-1.11,9.67.85-3.87,6.51-11.16,7.64-18,4.24-5-.65-6.25-2.63-6.56-7.24-7.62,10.13,8.54,26.27,19.64,19C271.64,259.07,277.43,246.71,271.67,241.59Z"/><path class="ba839b89-97f7-49aa-8e41-d11e36c16802" d="M280.79,243c-3.25.9-6.42,6.38-4,9.15,4.75-5.69,11.13-7.81,17.78-10.57-4.53-2.29-9.63.48-13.81,1.42"/><path class="a8ca97a6-4b83-4c86-9a7a-483db702fadd" d="M280.79,243c-3.25.9-6.42,6.38-4,9.15,4.75-5.69,11.13-7.81,17.78-10.57C290.07,239.28,285,242.05,280.79,243Z"/><path class="ba839b89-97f7-49aa-8e41-d11e36c16802" d="M306.81,258.83a4.08,4.08,0,0,0-.72-.31,17,17,0,0,0-1.56,6.85c2.62-1.67,2.34-3.93,2.28-6.54"/><path class="a8ca97a6-4b83-4c86-9a7a-483db702fadd" d="M306.81,258.83a4.08,4.08,0,0,0-.72-.31,17,17,0,0,0-1.56,6.85C307.15,263.7,306.87,261.44,306.81,258.83Z"/><path class="ba839b89-97f7-49aa-8e41-d11e36c16802" d="M307.78,238.36c-3.86-1.28-6.94-3.11-9.3-6.53.43,6.16,8.32,11.58,14.25,11.89-.11-3.22-2.61-4.35-5-5.36"/><path class="a8ca97a6-4b83-4c86-9a7a-483db702fadd" d="M307.78,238.36c-3.86-1.28-6.94-3.11-9.3-6.53.43,6.16,8.32,11.58,14.25,11.89C312.62,240.5,310.12,239.37,307.78,238.36Z"/><path class="ba839b89-97f7-49aa-8e41-d11e36c16802" d="M297.08,204.12c-2.34,1.26-2.34,3.84-1.05,5.74l.51-.22c-1.7-1.19,3.34-4.71.54-5.52"/><path class="a8ca97a6-4b83-4c86-9a7a-483db702fadd" d="M297.08,204.12c-2.34,1.26-2.34,3.84-1.05,5.74l.51-.22C294.84,208.45,299.88,204.93,297.08,204.12Z"/><path class="ba839b89-97f7-49aa-8e41-d11e36c16802" d="M237.62,241.68c1.6-.12,3.19-.31,4.79-.46-2.32-.53-4.62-2.47-7-1.46-.62,1.93.79,2.1,2.22,1.92"/><path class="a8ca97a6-4b83-4c86-9a7a-483db702fadd" d="M237.62,241.68c1.6-.12,3.19-.31,4.79-.46-2.32-.53-4.62-2.47-7-1.46C234.78,241.69,236.19,241.86,237.62,241.68Z"/><path class="ba839b89-97f7-49aa-8e41-d11e36c16802" d="M223.27,269.12c-.17.42-.22.4-.22.4,5.17,3.35,4.91-1.19,5.34-5-1.6,1.63-3.4,3.05-5.12,4.56"/><path class="a8ca97a6-4b83-4c86-9a7a-483db702fadd" d="M223.27,269.12c-.17.42-.22.4-.22.4,5.17,3.35,4.91-1.19,5.34-5C226.79,266.19,225,267.61,223.27,269.12Z"/><path class="ba839b89-97f7-49aa-8e41-d11e36c16802" d="M233,247c2.5,1,5.17.24,7.51-.15-1.13-2.77-6-1.89-7.51.15"/><path class="a8ca97a6-4b83-4c86-9a7a-483db702fadd" d="M233,247c2.5,1,5.17.24,7.51-.15C239.35,244.09,234.45,245,233,247Z"/><path class="ba839b89-97f7-49aa-8e41-d11e36c16802" d="M251.85,317a1.85,1.85,0,0,1,.31,0c-.93-.07-2.78-.78-2.89.24a4.64,4.64,0,0,0,2.58-.26"/><path class="a8ca97a6-4b83-4c86-9a7a-483db702fadd" d="M251.85,317a1.85,1.85,0,0,1,.31,0c-.93-.07-2.78-.78-2.89.24A4.64,4.64,0,0,0,251.85,317Z"/><path class="ba839b89-97f7-49aa-8e41-d11e36c16802" d="M226.91,248c-.71,1.45-.22,5.8-.73,6-3,.09-6.81,1-9.56-.4,1.81,9.4,18.95-1.39,10.29-5.63"/><path class="a8ca97a6-4b83-4c86-9a7a-483db702fadd" d="M226.91,248c-.71,1.45-.22,5.8-.73,6-3,.09-6.81,1-9.56-.4C218.43,263,235.57,252.2,226.91,248Z"/><path class="ba839b89-97f7-49aa-8e41-d11e36c16802" d="M216.41,238.86c-4.7,1.66-12-.05-14.41,6.2,16-9.73-7,19.09,17.93,17.62,1.62-4.68-11.14.68-6-5.78,1.17-9.24-2.94-7.63,7.57-10.46-3.33-2.17-9.68,2.81-10.62-1.11,1-8,13.95-.51,18.81-2.27-3.5-2.46-9.63-5-13.26-4.2m-2.83,11.85c1.58,2.25-2.48,8.78-4.29,5-.33-2.55.48-6.47,4.29-5"/><path class="ba839b89-97f7-49aa-8e41-d11e36c16802" d="M216.44,239a18.18,18.18,0,0,1-4.08.72,29.71,29.71,0,0,0-4.09.63,9.09,9.09,0,0,0-3.63,1.75,6.55,6.55,0,0,0-1.28,1.46c-.15.29-.34.55-.46.85a2.33,2.33,0,0,0-.14.47,1.11,1.11,0,0,1-.29.4l-.74-.62c1.65-.07,2.71-1.11,4.15-1.46A3,3,0,0,1,207,243a1.23,1.23,0,0,1,.94.51,3.74,3.74,0,0,1,.37,2.13c-.19,2.88-.77,5.74-.59,8.6a9.72,9.72,0,0,0,1,4,6.48,6.48,0,0,0,2.94,2.73c2.49,1.19,5.42,1.25,8.22,1.05l-.53.41c.13-.41.13-.75,0-.87a1.57,1.57,0,0,0-1-.39,21,21,0,0,0-2.92-.13,11.49,11.49,0,0,1-1.61-.13,3.55,3.55,0,0,1-.9-.28,1.57,1.57,0,0,1-.83-.88,2.42,2.42,0,0,1,.34-2,9.6,9.6,0,0,1,.9-1.35l-.14.33a37.25,37.25,0,0,0,.23-3.8c0-.64,0-1.28-.06-1.93a4.61,4.61,0,0,1,.29-2.26,3.41,3.41,0,0,1,1.92-1.38c.65-.23,1.29-.42,1.92-.59l3.79-1-.17,1.09a3.87,3.87,0,0,0-2.43-.51,20.2,20.2,0,0,0-2.78.43,14.09,14.09,0,0,1-2.95.36,2.6,2.6,0,0,1-1.53-.47c-.26-.14-.38-.42-.55-.63a6.55,6.55,0,0,1-.27-.74v-.08a4.5,4.5,0,0,1,1.1-2.45,4.23,4.23,0,0,1,2.35-1.18,16.13,16.13,0,0,1,5.23.28c1.72.31,3.42.71,5.15,1a8.16,8.16,0,0,0,2.61.18,11.38,11.38,0,0,0,2.38-.66l-.14,1.05a3.86,3.86,0,0,1-1.21-1.34,5.14,5.14,0,0,0-1.49-1,24.63,24.63,0,0,0-3.27-1.38,20.48,20.48,0,0,0-3.42-.89,9.75,9.75,0,0,0-3.49,0m-.06-.2a10,10,0,0,1,3.57.1,21.19,21.19,0,0,1,3.42,1c1.1.42,2.19.89,3.25,1.42l.78.42a2.38,2.38,0,0,0,.84.33c.3.06.65.07,1,.15a2.26,2.26,0,0,1,.81.43l1,.71-1.1.34a5.11,5.11,0,0,1-2.81-.15,24.1,24.1,0,0,0-2.59-.5c-1.73-.32-3.43-.72-5.15-1a14.29,14.29,0,0,0-5.21-.19,3.79,3.79,0,0,0-2.19,1.25,4.12,4.12,0,0,0-.84,2.35v-.08a1.67,1.67,0,0,0,1.92,1.26,14,14,0,0,0,2.74-.58,20.53,20.53,0,0,1,2.91-.6,4.85,4.85,0,0,1,3.16.57l1.15.72-1.32.37-3.76,1c-.62.18-1.23.37-1.8.58a2.28,2.28,0,0,0-1.22.8,3.72,3.72,0,0,0-.11,1.58c0,.64.07,1.31.08,2a26.55,26.55,0,0,1-.23,4l0,.19-.12.15a9.07,9.07,0,0,0-.79,1.15,1.51,1.51,0,0,0-.28.88c0,.07.29.27.73.34a10,10,0,0,0,1.4.12,22.64,22.64,0,0,1,3.11.19,2.75,2.75,0,0,1,1.71.86,1.77,1.77,0,0,1,.36,1.08,3.82,3.82,0,0,1-.19.94l-.12.39H220a17.5,17.5,0,0,1-8.71-1.44,7.34,7.34,0,0,1-3.13-3.23,10.38,10.38,0,0,1-.9-4.33c-.07-2.94.73-5.75.93-8.62a3.64,3.64,0,0,0-.32-2.07c-.4-.64-1.28-.56-1.94-.39a11.23,11.23,0,0,0-2,.8,2.67,2.67,0,0,0-.89.61c-.27.26-.48.61-.73.88l-1.48,1.63.74-2.25a6.62,6.62,0,0,1,2.76-3.32,10.68,10.68,0,0,1,4-1.34c2.72-.46,5.52-.56,8.13-1.45"/><path class="ba839b89-97f7-49aa-8e41-d11e36c16802" d="M213.65,250.63c.06.24.14.43.18.62a2.91,2.91,0,0,0,.15.58c0,.2.18.41.25.63s.06.23.1.34l0,.18s.11.07,0,.09l-.2,0-.38.07c-.1,0-.08.08-.1.13l-.08.29c0,.19-.12.37-.17.57-.14.37-.25.77-.42,1.15a3.5,3.5,0,0,1-1.73,2,1.59,1.59,0,0,1-.83.15,2.22,2.22,0,0,1-.86-.27,3.46,3.46,0,0,1-.59-.55,6,6,0,0,1-.39-.63l0-.08,0-.13a6.49,6.49,0,0,1,.14-2.24,5.88,5.88,0,0,1,1.15-1.92,4.33,4.33,0,0,1,.71-.77,1.79,1.79,0,0,1,.44-.27c.15-.07.19-.53.38-.71.18-.44.51.82.63.5a3,3,0,0,1,.52,0c.35,0,.68.13,1.08.19m-.13.16a2.89,2.89,0,0,0-1-.33,1.8,1.8,0,0,0-.52-.05s-.08,0-.12,0-.08.17-.11.3a1,1,0,0,1-.07.3s-.06,0-.1,0-.45-.48-.61-.39a1.79,1.79,0,0,0-.44.27,2.14,2.14,0,0,0-.66.8,4.51,4.51,0,0,0-.1,2,15.08,15.08,0,0,0,.14,1.92l-.06-.21c.08.13.16.26.23.39s.17.17.24.28a.63.63,0,0,0,.58.12,4.63,4.63,0,0,0,2.43-2.09,4.45,4.45,0,0,0,.25-.54l.09-.28c0-.05,0-.09,0-.16a2.32,2.32,0,0,0-.3-.22l-.16-.1c-.05,0,.07,0,.07-.06l.09-.12.18-.25a1.73,1.73,0,0,0,.28-.56,1.22,1.22,0,0,0-.35-1.05"/><path class="ba839b89-97f7-49aa-8e41-d11e36c16802" d="M247.54,263.1c-3.88-5.72-11.53-20.48-15.69-7.35-7.8,10.15,27.49,17.79,15.69,7.35"/><path class="a8ca97a6-4b83-4c86-9a7a-483db702fadd" d="M247.54,263.1c-3.88-5.72-11.53-20.48-15.69-7.35C224.05,265.9,259.34,273.54,247.54,263.1Z"/><path class="ba839b89-97f7-49aa-8e41-d11e36c16802" d="M227.1,232.35c.87,1.16,2.46-.46,3.61-.58-1-1.13-2.42.37-3.61.58"/><path class="a8ca97a6-4b83-4c86-9a7a-483db702fadd" d="M227.1,232.35c.87,1.16,2.46-.46,3.61-.58C229.72,230.64,228.29,232.14,227.1,232.35Z"/><path class="ba839b89-97f7-49aa-8e41-d11e36c16802" d="M231.66,268.24c-.46,0-.44-.07-.44-.07.95,1.19,2.6,1.87,3.81,2.87.3-1.34-2.45-1.86-3.37-2.8"/><path class="a8ca97a6-4b83-4c86-9a7a-483db702fadd" d="M231.66,268.24c-.46,0-.44-.07-.44-.07.95,1.19,2.6,1.87,3.81,2.87C235.33,269.7,232.58,269.18,231.66,268.24Z"/><path class="ba839b89-97f7-49aa-8e41-d11e36c16802" d="M325.23,213.92l-.23,0c.52.51,1.77.67,2,1.27,1.12.79,2.24,1.61,3.37,2.43,1.58-2.25-3.26-4-5.15-3.68"/><path class="a8ca97a6-4b83-4c86-9a7a-483db702fadd" d="M325.23,213.92l-.23,0c.52.51,1.77.67,2,1.27,1.12.79,2.24,1.61,3.37,2.43C332,215.35,327.12,213.64,325.23,213.92Z"/><path class="ba839b89-97f7-49aa-8e41-d11e36c16802" d="M340.92,344.3c.79-.31,2-.64,2.2-1.22,1.47-5.06,6-2.46,9.28-4.49-16-1.39-33,11.29-46.7,19.62-4.12,1.91-10.05,1-10.6,7.06,1-2.24,3.08-3.19,5.27-3.59-1.4,2.74-4.62,4.83-6.92,6.05-3.14,9-10.56,18.44-9.3,28.47,7.39-28,29.82-44.16,56.77-51.9"/><path class="a8ca97a6-4b83-4c86-9a7a-483db702fadd" d="M340.92,344.3c.79-.31,2-.64,2.2-1.22,1.47-5.06,6-2.46,9.28-4.49-16-1.39-33,11.29-46.7,19.62-4.12,1.91-10.05,1-10.6,7.06,1-2.24,3.08-3.19,5.27-3.59-1.4,2.74-4.62,4.83-6.92,6.05-3.14,9-10.56,18.44-9.3,28.47C291.54,368.2,314,352,340.92,344.3Z"/><path class="ba839b89-97f7-49aa-8e41-d11e36c16802" d="M314.59,362.08c-3.2-.07-2,5.07-2.83,7.26,2.05-.3,4.06-6.15,2.83-7.26"/><path class="a8ca97a6-4b83-4c86-9a7a-483db702fadd" d="M314.59,362.08c-3.2-.07-2,5.07-2.83,7.26C313.81,369,315.82,363.19,314.59,362.08Z"/><path class="ba839b89-97f7-49aa-8e41-d11e36c16802" d="M306.3,368.9c-1.25,5.34-9,6.62-10,11.87,5.13-2.52,15.43-4.78,11.3-12.45-.44.19-1.25.34-1.28.58"/><path class="a8ca97a6-4b83-4c86-9a7a-483db702fadd" d="M306.3,368.9c-1.25,5.34-9,6.62-10,11.87,5.13-2.52,15.43-4.78,11.3-12.45C307.14,368.51,306.33,368.66,306.3,368.9Z"/><path class="ba839b89-97f7-49aa-8e41-d11e36c16802" d="M292.82,359c2-3.09,4.73-2.93,7.82-4-5.75-7-11.12,3.44-14.31,7.73,2.58,0,4.58-2.25,6.49-3.73"/><path class="a8ca97a6-4b83-4c86-9a7a-483db702fadd" d="M292.82,359c2-3.09,4.73-2.93,7.82-4-5.75-7-11.12,3.44-14.31,7.73C288.91,362.75,290.91,360.5,292.82,359Z"/><path class="ba839b89-97f7-49aa-8e41-d11e36c16802" d="M324.94,396c-2.93.25.74,4,1.84,5,1.11-2.53,1.18-4.13-1.84-5"/><path class="a8ca97a6-4b83-4c86-9a7a-483db702fadd" d="M324.94,396c-2.93.25.74,4,1.84,5C327.89,398.43,328,396.83,324.94,396Z"/><path class="ba839b89-97f7-49aa-8e41-d11e36c16802" d="M319,383.37c-1,1.13-2.1,2-2.85,3,1.53-1.05,2.55-2.86,4-3.63-.53-.12-.82.52-1.11.65"/><path class="a8ca97a6-4b83-4c86-9a7a-483db702fadd" d="M319,383.37c-1,1.13-2.1,2-2.85,3,1.53-1.05,2.55-2.86,4-3.63C319.61,382.6,319.32,383.24,319,383.37Z"/><path class="ba839b89-97f7-49aa-8e41-d11e36c16802" d="M314.16,398.27c2.54-.47.24-4.83.53-6.81-1.54.68-1.79,5.81-.53,6.81"/><path class="a8ca97a6-4b83-4c86-9a7a-483db702fadd" d="M314.16,398.27c2.54-.47.24-4.83.53-6.81C313.15,392.14,312.9,397.27,314.16,398.27Z"/><path class="ba839b89-97f7-49aa-8e41-d11e36c16802" d="M298.37,346.87c.21-.07.29-.49.44-.75-2.15-.08-5.32,1.69-7.12,2.89,2.23-.72,4.46-1.4,6.68-2.14"/><path class="a8ca97a6-4b83-4c86-9a7a-483db702fadd" d="M298.37,346.87c.21-.07.29-.49.44-.75-2.15-.08-5.32,1.69-7.12,2.89C293.92,348.29,296.15,347.61,298.37,346.87Z"/><path class="ba839b89-97f7-49aa-8e41-d11e36c16802" d="M319.14,333.76a23.94,23.94,0,0,0-.75-2.39c-1.09.76.29,1.75.57,2.65a.93.93,0,0,0,.18-.26"/><path class="a8ca97a6-4b83-4c86-9a7a-483db702fadd" d="M319.14,333.76a23.94,23.94,0,0,0-.75-2.39c-1.09.76.29,1.75.57,2.65A.93.93,0,0,0,319.14,333.76Z"/><path class="ba839b89-97f7-49aa-8e41-d11e36c16802" d="M311.08,347.15a4.83,4.83,0,0,0-.21-.53L309,348a5.38,5.38,0,0,0,2.1-.83"/><path class="a8ca97a6-4b83-4c86-9a7a-483db702fadd" d="M311.08,347.15a4.83,4.83,0,0,0-.21-.53L309,348A5.38,5.38,0,0,0,311.08,347.15Z"/><path class="ba839b89-97f7-49aa-8e41-d11e36c16802" d="M319.9,346.64c-1-.48-2-1.62-3.07-1.69.14.67-.77,1-1.12,1.1,1.3.71,2.91.33,4.19.59"/><path class="a8ca97a6-4b83-4c86-9a7a-483db702fadd" d="M319.9,346.64c-1-.48-2-1.62-3.07-1.69.14.67-.77,1-1.12,1.1C317,346.76,318.62,346.38,319.9,346.64Z"/><path class="ba839b89-97f7-49aa-8e41-d11e36c16802" d="M301.38,344.86c3.73-4.77,9-3.31,13.74-2.84-4.38-4.58-14.79-3.52-15,3.18a10.31,10.31,0,0,0,1.24-.34"/><path class="a8ca97a6-4b83-4c86-9a7a-483db702fadd" d="M301.38,344.86c3.73-4.77,9-3.31,13.74-2.84-4.38-4.58-14.79-3.52-15,3.18A10.31,10.31,0,0,0,301.38,344.86Z"/><path class="ba839b89-97f7-49aa-8e41-d11e36c16802" d="M299.07,340.63c.28-.73.59-.72.78-1.13a10.57,10.57,0,0,0-2,2c.42-.32.84-.61,1.26-.9"/><path class="a8ca97a6-4b83-4c86-9a7a-483db702fadd" d="M299.07,340.63c.28-.73.59-.72.78-1.13a10.57,10.57,0,0,0-2,2C298.23,341.21,298.65,340.92,299.07,340.63Z"/><path class="ba839b89-97f7-49aa-8e41-d11e36c16802" d="M305.09,349c-1.14.86-4,.89-3.86,2.52,1.64-.58,4-1.1,5.26-2.1-.46-.13-.92-.51-1.4-.42"/><path class="a8ca97a6-4b83-4c86-9a7a-483db702fadd" d="M305.09,349c-1.14.86-4,.89-3.86,2.52,1.64-.58,4-1.1,5.26-2.1C306,349.33,305.57,349,305.09,349Z"/><path class="ba839b89-97f7-49aa-8e41-d11e36c16802" d="M327,388.74c-.77-.27-1.58-.46-2.37-.68-1.52,4.27,4.66,4.71,6.74,2.53a37.41,37.41,0,0,0-4.37-1.85"/><path class="a8ca97a6-4b83-4c86-9a7a-483db702fadd" d="M327,388.74c-.77-.27-1.58-.46-2.37-.68-1.52,4.27,4.66,4.71,6.74,2.53A37.41,37.41,0,0,0,327,388.74Z"/><path class="a8ca97a6-4b83-4c86-9a7a-483db702fadd" d="M414.37,503.63a7.55,7.55,0,0,0-.13-3.25C412.71,500.76,414.3,502.54,414.37,503.63Z"/><path class="ba839b89-97f7-49aa-8e41-d11e36c16802" d="M395.71,498.29a5.7,5.7,0,0,0,.05.77c1.19-.44,3.26-.26,4-1.21a17.85,17.85,0,0,0-4,.44"/><path class="a8ca97a6-4b83-4c86-9a7a-483db702fadd" d="M395.71,498.29a5.7,5.7,0,0,0,.05.77c1.19-.44,3.26-.26,4-1.21A17.85,17.85,0,0,0,395.71,498.29Z"/><path class="ba839b89-97f7-49aa-8e41-d11e36c16802" d="M405,503.57a18.31,18.31,0,0,1-1.08-4.2c-4.83,2.54-.05,10.86,4.82,8.53-1.27-1.43-2.51-2.87-3.74-4.33"/><path class="a8ca97a6-4b83-4c86-9a7a-483db702fadd" d="M405,503.57a18.31,18.31,0,0,1-1.08-4.2c-4.83,2.54-.05,10.86,4.82,8.53C407.5,506.47,406.26,505,405,503.57Z"/><path class="ba839b89-97f7-49aa-8e41-d11e36c16802" d="M421.14,507c-.87-2.25-2.65-4.84-4.88-3a10.44,10.44,0,0,1,4.1,2.57c-9.08-.34-10-3-10.71-11.43,1.49.69,2.77,2.18,4.51,1.85-5.7-11.63-9.26-24.08-13.52-36.18.42,8.73,2.56,18.81,6.5,26.57,6.55,1.59-.75,7.34-3.61,9.11,2.37.07,4.85.15,4.26,2.93-.29,7.66,16.13,12.1,22.18,16.28-1.72-4.49-6.86-4.37-8.83-8.68"/><path class="a8ca97a6-4b83-4c86-9a7a-483db702fadd" d="M421.14,507c-.87-2.25-2.65-4.84-4.88-3a10.44,10.44,0,0,1,4.1,2.57c-9.08-.34-10-3-10.71-11.43,1.49.69,2.77,2.18,4.51,1.85-5.7-11.63-9.26-24.08-13.52-36.18.42,8.73,2.56,18.81,6.5,26.57,6.55,1.59-.75,7.34-3.61,9.11,2.37.07,4.85.15,4.26,2.93-.29,7.66,16.13,12.1,22.18,16.28C428.25,511.14,423.11,511.26,421.14,507Z"/><path class="ba839b89-97f7-49aa-8e41-d11e36c16802" d="M364.1,399.29c2-1.62-3.26-2.67-2.09-4.4a2.1,2.1,0,0,0-1.08-1c1.51,1.52.32,5.54,3.17,5.4"/><path class="a8ca97a6-4b83-4c86-9a7a-483db702fadd" d="M364.1,399.29c2-1.62-3.26-2.67-2.09-4.4a2.1,2.1,0,0,0-1.08-1C362.44,395.41,361.25,399.43,364.1,399.29Z"/><path class="ba839b89-97f7-49aa-8e41-d11e36c16802" d="M387.16,480.06l1.18-1.8a12.85,12.85,0,0,0-2.6.7l1.42,1.1"/><path class="a8ca97a6-4b83-4c86-9a7a-483db702fadd" d="M387.16,480.06l1.18-1.8a12.85,12.85,0,0,0-2.6.7Z"/><path class="ba839b89-97f7-49aa-8e41-d11e36c16802" d="M397.11,459.64c.56-.14,1-.78,1.49-1.18-7.27-1.56-2.29-7.94-6.42-11.75-.87,4.88,3.09,10.28-2.09,13.8a186,186,0,0,0-8.75-28.41,3.12,3.12,0,0,0-.41-.85c-3.08.51-4.15-4.48-6.66-6.14-11.09-10.62-13.7,7.72-14.54-18.86,6.06-2.66-4.57-8-6.92-8.33-4.87-1.52-4.22-13.05-3.49-17.55,4.24,3,1.94,9.44,4,13.79,1.11-2.15.83-4.84,1.51-7.05,2.91-.7,1.83,2.67,3.38,3.37,0-1.25,0-3,.13-4.14,5,1.44,8.2,5.78,10,10.37a6.15,6.15,0,0,0-1.91-.79c.48.7,1.59,1.75,1.2,2.57-1.72,3.33,2.95,5.9,4.92,4.21,3.11,4.23,4.36,10.63,9.05,13.2-6-27.65-37.49-53-61.24-28.33,6.14-.1,10.56-7.75,17.5-5.92,3.73.8,2.36,8.75,5.39,11.07,1.2-4.8-2.84-9.64-1-14.84,4.3,5,5.47,12.57,3.95,18.47,4.34,1.6,7.94,4.08,1,6-1.29.58-2.41,3.09-4,3.85-1.86-3.82-.06-9.24-2.94-12.32a10.35,10.35,0,0,0-.39,2.05c-2.84,1.64-5.32-1.09-8.3-.91,1,1,1.78,2.44,2.93,2.79,8,1.87,2.12,4,8.12,13,3-3.39,11.25-12.12,13.43-4,4.89,47.88,36.15,97.15,25.06,144.64l3.2,1.73c12.13-43.26-18.8-86.34-18-128.67,10.41-2.39,28.62,45.57,19.26,49.15,1.68,2.21,3.55-1.09,5.12-2.06-.33-5.63-.58-10.64,6.35-11.91m-25.78-59.09a16.2,16.2,0,0,1,1.22,2.17c-2.16-.07-1.93-1-1.22-2.17m-3-3.86c.71.34,2.6,1.3,1.86,2.1a19.16,19.16,0,0,1-1.86-2.1"/><path class="a8ca97a6-4b83-4c86-9a7a-483db702fadd" d="M397.11,459.64c.56-.14,1-.78,1.49-1.18-7.27-1.56-2.29-7.94-6.42-11.75-.87,4.88,3.09,10.28-2.09,13.8a186,186,0,0,0-8.75-28.41,3.12,3.12,0,0,0-.41-.85c-3.08.51-4.15-4.48-6.66-6.14-11.09-10.62-13.7,7.72-14.54-18.86,6.06-2.66-4.57-8-6.92-8.33-4.87-1.52-4.22-13.05-3.49-17.55,4.24,3,1.94,9.44,4,13.79,1.11-2.15.83-4.84,1.51-7.05,2.91-.7,1.83,2.67,3.38,3.37,0-1.25,0-3,.13-4.14,5,1.44,8.2,5.78,10,10.37a6.15,6.15,0,0,0-1.91-.79c.48.7,1.59,1.75,1.2,2.57-1.72,3.33,2.95,5.9,4.92,4.21,3.11,4.23,4.36,10.63,9.05,13.2-6-27.65-37.49-53-61.24-28.33,6.14-.1,10.56-7.75,17.5-5.92,3.73.8,2.36,8.75,5.39,11.07,1.2-4.8-2.84-9.64-1-14.84,4.3,5,5.47,12.57,3.95,18.47,4.34,1.6,7.94,4.08,1,6-1.29.58-2.41,3.09-4,3.85-1.86-3.82-.06-9.24-2.94-12.32a10.35,10.35,0,0,0-.39,2.05c-2.84,1.64-5.32-1.09-8.3-.91,1,1,1.78,2.44,2.93,2.79,8,1.87,2.12,4,8.12,13,3-3.39,11.25-12.12,13.43-4,4.89,47.88,36.15,97.15,25.06,144.64l3.2,1.73c12.13-43.26-18.8-86.34-18-128.67,10.41-2.39,28.62,45.57,19.26,49.15,1.68,2.21,3.55-1.09,5.12-2.06C390.43,465.92,390.18,460.91,397.11,459.64Zm-25.78-59.09a16.2,16.2,0,0,1,1.22,2.17C370.39,402.65,370.62,401.71,371.33,400.55Zm-3-3.86c.71.34,2.6,1.3,1.86,2.1A19.16,19.16,0,0,1,368.36,396.69Z"/><path class="ba839b89-97f7-49aa-8e41-d11e36c16802" d="M368.14,406.53c-.32-.19-.95.11-1.43.19a18,18,0,0,0,6.48,10.95c.7,1.31,1.6,2.55,2.39,3.81,1.64-6-4.82-10.58-7.44-15"/><path class="a8ca97a6-4b83-4c86-9a7a-483db702fadd" d="M368.14,406.53c-.32-.19-.95.11-1.43.19a18,18,0,0,0,6.48,10.95c.7,1.31,1.6,2.55,2.39,3.81C377.22,415.53,370.76,410.9,368.14,406.53Z"/><path class="ba839b89-97f7-49aa-8e41-d11e36c16802" d="M395,463.44c-3,3.68,1,10.67-3.48,13.24,5.69,1.49,4.49-9.65,3.48-13.24"/><path class="a8ca97a6-4b83-4c86-9a7a-483db702fadd" d="M395,463.44c-3,3.68,1,10.67-3.48,13.24C397.25,478.17,396.05,467,395,463.44Z"/><path class="ba839b89-97f7-49aa-8e41-d11e36c16802" d="M358.54,395.22a4.41,4.41,0,0,1,1.27.69l.16-.25c-1.27-.34-2.25-1.81-.64-2.26a3.25,3.25,0,0,0-1.05-.21c.11.66-.51,1.3-.74,1.56l1,.47"/><path class="a8ca97a6-4b83-4c86-9a7a-483db702fadd" d="M358.54,395.22a4.41,4.41,0,0,1,1.27.69l.16-.25c-1.27-.34-2.25-1.81-.64-2.26a3.25,3.25,0,0,0-1.05-.21c.11.66-.51,1.3-.74,1.56Z"/><path class="ba839b89-97f7-49aa-8e41-d11e36c16802" d="M337.22,351.08a32.69,32.69,0,0,0-18.89,9.75c6.42.66,15.89-12.56,19.17.31.15,2.92-2.43,1-3.9.86-4.52-1.33-12.18,1.88-15.87,4.49,8.59,1.88,11.93-6.44,23.79-.21.66-5.07-4.67-9.29-3-14.29,4.88,2.16,3.23,9.62,7.59,12.26,10.47,3.57,16.71,12.36,23.64,20-2.89-6-6.92-14.52-10.39-19,1.12.92,1.09,2.69,2.08,3.39-6.81-.91-18.46-7-18-15.53.78.05,1.82.05,2.59.05-1-4-5.79-1.89-8.8-2"/><path class="a8ca97a6-4b83-4c86-9a7a-483db702fadd" d="M337.22,351.08a32.69,32.69,0,0,0-18.89,9.75c6.42.66,15.89-12.56,19.17.31.15,2.92-2.43,1-3.9.86-4.52-1.33-12.18,1.88-15.87,4.49,8.59,1.88,11.93-6.44,23.79-.21.66-5.07-4.67-9.29-3-14.29,4.88,2.16,3.23,9.62,7.59,12.26,10.47,3.57,16.71,12.36,23.64,20-2.89-6-6.92-14.52-10.39-19,1.12.92,1.09,2.69,2.08,3.39-6.81-.91-18.46-7-18-15.53.78.05,1.82.05,2.59.05C345,349.14,340.23,351.21,337.22,351.08Z"/><path class="ba839b89-97f7-49aa-8e41-d11e36c16802" d="M256.75,396.39c2.76-.95,2-6.93,1.45-9.07-2.4.81-4.14,8.08-1.45,9.07"/><path class="a8ca97a6-4b83-4c86-9a7a-483db702fadd" d="M256.75,396.39c2.76-.95,2-6.93,1.45-9.07C255.8,388.13,254.06,395.4,256.75,396.39Z"/><path class="ba839b89-97f7-49aa-8e41-d11e36c16802" d="M256.08,433c-1.63.91,1.17,9.27,2.85,8.47-1-2.95-.7-6.78-2.85-8.47"/><path class="a8ca97a6-4b83-4c86-9a7a-483db702fadd" d="M256.08,433c-1.63.91,1.17,9.27,2.85,8.47C257.92,438.54,258.23,434.71,256.08,433Z"/><path class="ba839b89-97f7-49aa-8e41-d11e36c16802" d="M253.7,387.65c-.88,1-.88,2.16-1.29,3.36,1,0,1.16-3,1.53-3.73l-.24.37"/><path class="a8ca97a6-4b83-4c86-9a7a-483db702fadd" d="M253.7,387.65c-.88,1-.88,2.16-1.29,3.36,1,0,1.16-3,1.53-3.73Z"/><path class="ba839b89-97f7-49aa-8e41-d11e36c16802" d="M259.74,428.2a5.23,5.23,0,0,0-.8-1.24c-2.22,5.54,4.94,10.69,2.22,16.85-.2.62.48,1.54.75,2.31,4.69-4.64-1.44-12.76-2.17-17.92"/><path class="a8ca97a6-4b83-4c86-9a7a-483db702fadd" d="M259.74,428.2a5.23,5.23,0,0,0-.8-1.24c-2.22,5.54,4.94,10.69,2.22,16.85-.2.62.48,1.54.75,2.31C266.6,441.48,260.47,433.36,259.74,428.2Z"/><path class="ba839b89-97f7-49aa-8e41-d11e36c16802" d="M325.22,335.46l-.66-1.91a5.75,5.75,0,0,0-.79,2.35l1.45-.44"/><path class="a8ca97a6-4b83-4c86-9a7a-483db702fadd" d="M325.22,335.46l-.66-1.91a5.75,5.75,0,0,0-.79,2.35Z"/><path class="ba839b89-97f7-49aa-8e41-d11e36c16802" d="M261.82,419.88c-.2.19,0,.78,0,1.18,1.24-.82,3.34-1.57,2.58-3.32a33.59,33.59,0,0,0-2.6,2.14"/><path class="a8ca97a6-4b83-4c86-9a7a-483db702fadd" d="M261.82,419.88c-.2.19,0,.78,0,1.18,1.24-.82,3.34-1.57,2.58-3.32A33.59,33.59,0,0,0,261.82,419.88Z"/><path class="ba839b89-97f7-49aa-8e41-d11e36c16802" d="M240.68,436.1c-2,.19-3.46.44-4.91.69a14.93,14.93,0,0,0,8.6,1.08l-3.69-1.77"/><path class="a8ca97a6-4b83-4c86-9a7a-483db702fadd" d="M240.68,436.1c-2,.19-3.46.44-4.91.69a14.93,14.93,0,0,0,8.6,1.08Z"/><path class="ba839b89-97f7-49aa-8e41-d11e36c16802" d="M246.07,455.18c.59-1,1-2.15-.51-2.06l.51,2.06"/><path class="a8ca97a6-4b83-4c86-9a7a-483db702fadd" d="M246.07,455.18c.59-1,1-2.15-.51-2.06Z"/><path class="ba839b89-97f7-49aa-8e41-d11e36c16802" d="M250.17,422.92l.51-.72-1.59-.78a3.7,3.7,0,0,0,1.08,1.5"/><path class="a8ca97a6-4b83-4c86-9a7a-483db702fadd" d="M250.17,422.92l.51-.72-1.59-.78A3.7,3.7,0,0,0,250.17,422.92Z"/><path class="ba839b89-97f7-49aa-8e41-d11e36c16802" d="M386.38,434.74c.84-1.9-.92-4.16-1.19-6.17.19,2.34-.51,4.73,1.19,6.17"/><path class="a8ca97a6-4b83-4c86-9a7a-483db702fadd" d="M386.38,434.74c.84-1.9-.92-4.16-1.19-6.17C385.38,430.91,384.68,433.3,386.38,434.74Z"/><path class="ba839b89-97f7-49aa-8e41-d11e36c16802" d="M325.89,320.59a12.11,12.11,0,0,0-2.3.6c1.16.86,1.77.88,2.3-.6"/><path class="a8ca97a6-4b83-4c86-9a7a-483db702fadd" d="M325.89,320.59a12.11,12.11,0,0,0-2.3.6C324.75,322.05,325.36,322.07,325.89,320.59Z"/><path class="ba839b89-97f7-49aa-8e41-d11e36c16802" d="M337.3,325.91c1,.26,1.21.25,1.76,0,.58,1.73,2.55,2.21,3.3,3.63.86-3.53-3.62-.9-2.13-4.06-1.39,2.28-9.07-3.57-5.26-4a.78.78,0,0,1-.55-.87,16,16,0,0,1,2.66-.81l-5-1c.46,3.32,2.61,5.57,5.23,7.14"/><path class="a8ca97a6-4b83-4c86-9a7a-483db702fadd" d="M337.3,325.91c1,.26,1.21.25,1.76,0,.58,1.73,2.55,2.21,3.3,3.63.86-3.53-3.62-.9-2.13-4.06-1.39,2.28-9.07-3.57-5.26-4a.78.78,0,0,1-.55-.87,16,16,0,0,1,2.66-.81l-5-1C332.53,322.09,334.68,324.34,337.3,325.91Z"/><path class="ba839b89-97f7-49aa-8e41-d11e36c16802" d="M342.62,336.12c-.11-4.11-5.24-4-7.45-6.1-2.5.88-4.35-2.22-4.08,1.33,3.83,1.51,7.69,3.45,11.53,4.77"/><path class="a8ca97a6-4b83-4c86-9a7a-483db702fadd" d="M342.62,336.12c-.11-4.11-5.24-4-7.45-6.1-2.5.88-4.35-2.22-4.08,1.33C334.92,332.86,338.78,334.8,342.62,336.12Z"/><path class="ba839b89-97f7-49aa-8e41-d11e36c16802" d="M330,339.39c.89.22,1.95-.24,2.93-.4-2.59-.93-8.15-3.86-2.93.4"/><path class="a8ca97a6-4b83-4c86-9a7a-483db702fadd" d="M330,339.39c.89.22,1.95-.24,2.93-.4C330.38,338.06,324.82,335.13,330,339.39Z"/><path class="ba839b89-97f7-49aa-8e41-d11e36c16802" d="M357.82,363.24a1.07,1.07,0,0,1,.42.05c-1.13-.8-2.08-2.34-3.34-2.7,1,.88,2,1.77,2.92,2.65"/><path class="a8ca97a6-4b83-4c86-9a7a-483db702fadd" d="M357.82,363.24a1.07,1.07,0,0,1,.42.05c-1.13-.8-2.08-2.34-3.34-2.7C355.89,361.47,356.85,362.36,357.82,363.24Z"/><path class="ba839b89-97f7-49aa-8e41-d11e36c16802" d="M336.49,373.91c10-2,18.41,1.59,26.43,7.11-10.8-12.25-27.28-15.42-42.13-10.23-1.54.26-2,.71-.84,2.13,5.62,5.88,13.34-4.7,19.63-2.07-1,1.08-2,2.08-3.09,3.06"/><path class="a8ca97a6-4b83-4c86-9a7a-483db702fadd" d="M336.49,373.91c10-2,18.41,1.59,26.43,7.11-10.8-12.25-27.28-15.42-42.13-10.23-1.54.26-2,.71-.84,2.13,5.62,5.88,13.34-4.7,19.63-2.07C338.61,371.93,337.56,372.93,336.49,373.91Z"/><path class="ba839b89-97f7-49aa-8e41-d11e36c16802" d="M233.42,454.06a13.16,13.16,0,0,0-.45,2.84c3-.4,3-4.56.45-2.84"/><path class="a8ca97a6-4b83-4c86-9a7a-483db702fadd" d="M233.42,454.06a13.16,13.16,0,0,0-.45,2.84C236,456.5,236,452.34,233.42,454.06Z"/><path class="ba839b89-97f7-49aa-8e41-d11e36c16802" d="M325.88,327.65a8.56,8.56,0,0,1-2-.91c-.07.24-.13.49-.2.74.78-.32,1.75.46,2.19.17"/><path class="a8ca97a6-4b83-4c86-9a7a-483db702fadd" d="M325.88,327.65a8.56,8.56,0,0,1-2-.91c-.07.24-.13.49-.2.74C324.47,327.16,325.44,327.94,325.88,327.65Z"/><path class="ba839b89-97f7-49aa-8e41-d11e36c16802" d="M254.71,358.8c-.28-.59-1.07-.94-1.62-1.41a3.94,3.94,0,0,0-.65,4.11c.17-.38,3.2-2.12,2.27-2.7"/><path class="ba839b89-97f7-49aa-8e41-d11e36c16802" d="M261.28,287.94c-6.34-2.43-41.85-3.95-34.07,10.08,2.62-.85.81-5.07,1.93-6a41.72,41.72,0,0,1,23.59-1.9c-1.23,5.8-20.89,7.7-13.14,13.74a4,4,0,0,0-.91-.28c.5-2.15,1.94-3.12,3.33-.94,17.2,17.94,39.38-7.42,57.54-9.12-14.16,13.46-29.54,33-36.1,49.7,7,.55.46-9.65,9.76.06,1.91-4-5.38-1.08-4.13-7.29a4.65,4.65,0,0,0,2.17-.52c-.59.1-1.19.17-2.11.34,1.19-5.93,6.12,2.72,7.18,5l35.72-31c-1.41-3.4-5.69-5.37-4.8-10,1.25-5.14-4-8.92-2-14.1.84,1.86,1.71,3.69,2.47,5.59-1.88-16.11,10.18-16,10.91-27.93-1.42.79-2.67,2.61-4.21,3.23a5.74,5.74,0,0,0,.93.19c-.48,1.33-1.85,2.32-2.61,3.36l-2.36.87c.75-1.42,1.35-2.95,2.81-3.77-3.17.1-7.4.79-9.12,3.77,1.37,1,2.8,1.91,4.2,2.83-.72,1-1.24,2.56-2.22,3-4.13,1.06,1.06,3.92-.73,6.93,0,2.76-4.37,2.72-2.41,6.05-8.74,20.26,4.22-51.72-10.41-43.7-14.92,4.84-22,23.26-39.34,19.19-2.31,1.13.82,5-3.21,5-3.37,6.63-10.69,6.87-15.57,11.56,6.08.63,21.94,2.59,26.61,1.41a1.44,1.44,0,0,1,1.83,1.7l-.6,2.44a.69.69,0,0,1-.92.48m33.27,1c-3.26-1.57-3.92-6.51-7.63-7.22-2.1-4-4.89-3.71-4.13-8.91,0-.47-.47-1-.62-1.29,3.09-.81,4.28,1.93,4.9,4.21-.24.05-.58-.07-.61.25.69-.43,1.17.61,1.28,1.11-.22,0-.59-.07-.6.25,5.61.27,8.58,7.09,7.41,11.6"/><path class="a8ca97a6-4b83-4c86-9a7a-483db702fadd" d="M268.08,155.54c18.1,6.34,44,13.11,54.06,29.42-1.28-.91-3.67-2.61-5.79-2.75.7,7,6.28,14.31,12.74,17.19,2,.93,2.46,1.8,2.27,3.66-2.17,7,9.33,8.36,6.73,12.5-2.74-2.06-1.54,1.09-2.25,1.7,3.81-.42,6.27,2.81,10.2,2.46.2,0,.54.85.81,1.31-1.26,0-1.09,4.7-3.53,1.1-3.42,1-7.19-3.21-10.7-4.16-1.5,2.82-5.74,1.29-8.31,1.94,1.46,1.16,6.65,4.84,5.31.11.11-.18.28-.17.7-.18,2.71,4,8.87,4.6,12.52,3.64,1.35,2.46,1.8,4.53-1.59,5.25l.05,0-1.41-.75c.17.4.23,1.14.69,1.44h0c2.36,1.16,8.9,5,5.5,7.67-.81-2.27-3.67-2-5.59-2.88,1.26,7,10.52,15.93,4,22.9-1.81-3.57.43-8.8-2.37-11.65-.95,6.92,1.67,14.58-5.68,19.81-.67-1.68-1.2-3.43-2.58-4.7,4.71,12.49-29.08,22.56-12.14,32.44-.53-1-1.57-1.71-.15-2.48a2.26,2.26,0,0,1-.07-.52c14.87,8.45-17.13,10.32-8.71,16.76.64.77.95,3.09-.76,3,3.07,11.43,22.09-5.52,29.54,8.11,2.67,7.16,23.45,25.32,5.44,25.2-10.08,1.79,15.73,17.45,17.14,21.85,15,28.29,23.53,59.21,37.68,87.57,1.3,4.81,3.15,9.52,4.62,14.11h.05c2,12,9.54,21.78,14.27,32.44,1.15-1.61-.84-4.21,1-4.9.93,2.23,3.24,5.23,2.51,6.55-1.89,5.29,6.74,11.47,8,17.57-8.37-.47-16.25-.34-22.08-6.76-1.85-.71-5.53.11-4.77,3,3.47,9.75,3.47,19.93,3.78,30.07.13,4.19-.18,8.47,3.78,11.11H397c.69-10.06,4.75-20.82,2-30.66-3.53,9.16-2.4,20.24-5,30.37q-116.34.43-232,.29c.39-3.59,2.15-7.27,1.33-10.85-3.46,1.86-1.68,13.62-7.27,10-.73-1.48-.05-3.43.39-4.82.22-.72,1.74-.7,2.19-1.37-1.52-9.42,3.05-19.21,8.91-26.45.32,2.29-3.78,10.56-.2,8.72-.77-17.84,10.37-33.88,15.94-50.62,4.28-9.78,10.18-19.69,14.45-29,3.4-1,4.41-3.7,5.58-6.32A429.45,429.45,0,0,1,237,378.5c.52-4.78,18.85-10.45,15.43-17L237,374.89c4.07-5.37,2.82-13.09,10.88-15.86,5.47-4.23-9-32.95-10.33-41.57-15.17-8-19.92-23.23-19.19-39.75-1-1.69-5.42-3.74-3.46-6.09-.15-.41-.27-.84-.39-1.25-.36,4.79,4,9.64,1.46,15.33-4.66-7.76-4.17-20.22-16.08-19.53-7.46-.26-28.77-16.16-29.49-23.58,3.36,1.55,5.51,1.2,7.74-1.59a16.17,16.17,0,0,1-6.69-.35,11.64,11.64,0,0,0,5.27-3c-2.62,0-5,.69-7.7.15,3.6-4.27,9.52-6.52,12.4-11.23-3.84-1.17-5.81,4.11-8.24,6.35-8-21.43-2.92-11.24,6.08-26.17a4.07,4.07,0,0,1-3.49-.6c0-3.55,11-9.43,5.43-9.78,5.14-3,1.2-10.66,7.87-11.69l0,0c6.29-.11,11.21-5.31,17.21-6.29-.23,4.37-5.55,7.08-5.2,11.62,5.49-4.67,7.51-16.93,16.2-16.33-7.33,8.44-12.92,20-8.2,30.78-3.09-22.19,15.57-37.18,34.08-45.14-18.69,4-34.46,16.79-52.5,23.26,9.54-10.34,25.44-14.41,37.3-23.3,13.23-2.71,26.75-3.05,40.13-3.67a19.72,19.72,0,0,0-6,0m59.59,34.19c-.35-.39-.22-1.2-.3-1.83,2.43.27,2.92,2,2.87,4.11A20.82,20.82,0,0,1,321.68,189.73ZM351,229.35a6.94,6.94,0,0,1-1.41,2.12c-.82-2.63-3.89-3.76-4.57-6.36C347.54,224.53,351.44,226.41,351,229.35ZM439.67,530.3c-4.64-4.88.78,21.26-.82,25.29-6.41-5.08-1.43-22.12-3.16-31.16,1.66,1.77,2.8,4,4.14,5.91A.32.32,0,0,0,439.67,530.3Zm8,25.29c-3.92.75-1.74-3.15-1.71-5.26C446.36,552,448.25,554,447.68,555.59Zm2.91-5.08q-3.75-6.9-7.4-13.83c2.88,4.72,6.63,9.52,8.25,14.63C451.15,551,450.76,550.84,450.59,550.51Zm2.72,4.87c-.23-.75-.4-1.29-.55-1.82a6.58,6.58,0,0,1,1.76,2A2.23,2.23,0,0,1,453.31,555.38Z"/><path class="ba839b89-97f7-49aa-8e41-d11e36c16802" d="M237,378.5l.27-.22a1.64,1.64,0,0,0-.27.22"/><path class="ba839b89-97f7-49aa-8e41-d11e36c16802" d="M237.28,378.28l7.6-6.5c-2.38,2.87-7.36,2.76-7.87,6.72a1.64,1.64,0,0,1,.27-.22"/><path class="ba839b89-97f7-49aa-8e41-d11e36c16802" d="M256.78,361.61c.66-2.15,25.2-17.49,19.54-20.83.12,1.43-27,19.5-19.54,20.83"/><path class="ba839b89-97f7-49aa-8e41-d11e36c16802" d="M277.39,344c.61-2.28,41.4-30.79,34.65-34.18-1,2.06-40,31.18-34.65,34.18"/><path class="ba839b89-97f7-49aa-8e41-d11e36c16802" d="M252.45,365.31l4.33-3.7c-.68.07-1.07-.65-1.83-2.28-3.68,2.11-1.19,3.39-2.5,6"/><path class="ba839b89-97f7-49aa-8e41-d11e36c16802" d="M276.64,346.15c-13.14,10.65-26.67,21-39.36,32.13,10.49-8.19,9.35,1.09,16.73,6.37,1.44-5.31-5.09-7.36-5.32-12.29,3.62.46,5.86,4.29,6.91,7.27,3.27,5.47,12.89-11.47,15.27-14.79,1.47-2.6-1.95-4.53-2.74-6.8-.42-4.2,6.5-.79,4.93-5.83,1.35-.59,3-1.55,4.42-2.27,1.32,4.74-5.9,7.1-4.43,11.81,16.35-14.54,29.12-34.52,50.08-42.81-3.64-2.33-10.19.83-9.74-5.73l-36,30.77a3.26,3.26,0,0,1-.75,2.17M259,375.87c-3.23,1.64-5.75-10.18-.32-11.42.78,3.79,4.79,8.49.32,11.42m4.59-9.24c-.45-.67-1.47-1.34-.81-2,.31.69.64,1.37,1,2.06l-.15,0m1.85-1.54c-1.28-1.61-1.31-3.66-1.32-5.63,3.78-.21,5.24,9,1.32,5.63m21.66-25.31c1.3-.55,2.65-1,4-1.48-2.67,5.77-9.5,5.28-4,1.48M280.92,345a13,13,0,0,1,3.07-.6c.28,2.46-1.81,2.42-3.67,2.32.19-.6.22-1.57.6-1.72"/></g></g></g></svg>